<svg xmlns="http://www.w3.org/2000/svg" xmlns:xlink="http://www.w3.org/1999/xlink" width="228px" height="47px" viewBox="0 0 228 47" version="1.1">
  <g id="Site" stroke="none" stroke-width="1" fill="none" fill-rule="evenodd">
    <g id="DESKTOP" transform="translate(-1095.000000, -349.000000)" fill="#FBBC04">
      <g id="01-HERO" transform="translate(-1.000000, 0.000000)">
        <g id="COPY" transform="translate(861.000000, 220.000000)">
          <g id="Group">
            <g id="Group-8" transform="translate(235.000000, 129.000000)">
              <path d="M0.0676075737,45.2949588 C54.1343421,45.7377792 108.200404,46.182343 162.267139,46.6251634 C177.459389,46.7506873 192.651639,46.8744678 207.843889,47 C209.800425,47.0139388 212.927253,29.405726 213.761925,25.6591864 C214.949702,20.3261643 216.107886,14.8937691 217.073039,9.2626278 C217.187378,8.59491042 218.278304,1.70678676 217.932597,1.70504337 C163.865863,1.26047958 109.799128,0.817659176 55.7330661,0.373095386 C40.5408161,0.24931488 25.3485662,0.125534373 10.1563162,0 C8.19977928,-0.015680007 5.07227962,17.5925329 4.23827971,21.3390724 C3.05050242,26.6720945 1.89231867,32.1062331 0.927165546,37.735631 C0.812826849,38.4033484 -0.278771421,45.2914721 0.0676075737,45.2949588" id="Fill-1"/>
              <path d="M170.432726,46.5509902 C186.388711,46.5847395 207.172898,43.6104141 223.128883,43.6444534 C225.18373,43.6468709 223.260354,31.0316749 224.056282,27.7068823 C225.188893,22.9741988 226.288291,18.1535916 227.180715,13.1578171 C227.286425,12.5654394 228.283895,6.4549647 227.920834,6.45517654 C171.136136,6.33594652 114.351476,6.21826167 57.567484,6.09902824 C41.611536,6.06653413 25.655588,6.03404002 9.69960258,6 C7.64471809,5.99603811 4.73914979,21.6180569 3.94392718,24.9428461 C2.81131661,29.6755296 1.71195617,34.497682 0.819494305,39.4919114 C0.713784748,40.0842891 -0.28439213,46.1947672 0.079413253,46.1960971 C56.8640736,46.3137819 113.648065,46.4330154 170.432726,46.5509902 Z" id="Fill-1" opacity="0.600000024"/>
            </g>
          </g>
        </g>
      </g>
    </g>
  </g>
</svg>