<svg version="1.0" xmlns="http://www.w3.org/2000/svg"
 width="344.000000pt" height="344.000000pt" viewBox="0 0 344.000000 344.000000"
 preserveAspectRatio="xMidYMid meet">

<g transform="translate(0.000000,344.000000) scale(0.100000,-0.100000)"
fill="#d32f2f" stroke="none">
<path d="M1593 3356 c-149 -36 -299 -156 -363 -291 -19 -38 -34 -71 -34 -72
-1 0 -33 10 -73 23 -207 70 -416 21 -568 -131 -152 -152 -201 -361 -131 -568
13 -40 23 -72 23 -73 -1 0 -33 -15 -72 -34 -87 -41 -197 -148 -243 -236 -82
-157 -82 -351 0 -508 46 -88 156 -195 243 -236 39 -19 71 -34 72 -34 0 -1 -10
-33 -23 -73 -70 -207 -21 -416 131 -568 152 -152 361 -201 568 -131 40 13 72
23 73 23 0 -1 15 -33 34 -72 67 -139 225 -262 378 -294 120 -25 257 -6 366 51
88 46 195 156 236 243 19 39 34 71 34 72 1 0 33 -10 73 -23 269 -90 549 25
671 276 69 141 78 275 27 425 -13 39 -23 70 -22 71 1 0 34 15 72 34 179 86
305 288 305 490 0 202 -126 404 -305 490 -38 19 -71 34 -72 34 -1 1 9 33 22
71 51 150 42 284 -27 425 -122 251 -402 366 -671 276 -40 -13 -72 -23 -73 -23
0 1 -15 34 -34 72 -41 87 -148 197 -236 243 -112 58 -261 77 -381 48z m-340
-405 c58 -40 442 -431 451 -458 4 -13 11 -23 16 -23 5 0 12 10 16 23 9 31 410
433 462 464 24 14 45 23 47 21 3 -3 10 -31 16 -62 12 -66 7 -607 -6 -645 -8
-22 -6 -24 16 -16 13 5 153 10 312 12 282 4 397 -4 397 -28 0 -26 -75 -110
-261 -295 -112 -111 -214 -204 -226 -208 -31 -10 -29 -18 11 -40 41 -22 446
-429 465 -468 8 -16 12 -30 9 -33 -2 -3 -31 -10 -62 -16 -66 -12 -607 -7 -645
6 -22 8 -24 6 -16 -16 13 -38 18 -579 6 -645 -6 -31 -13 -59 -16 -62 -2 -2
-23 7 -47 21 -52 31 -453 433 -462 465 -10 31 -17 28 -46 -18 -13 -22 -117
-131 -230 -243 -187 -185 -251 -239 -265 -225 -3 2 -10 31 -16 62 -12 66 -7
607 6 645 8 22 6 24 -16 16 -38 -13 -579 -18 -645 -6 -31 6 -60 13 -62 16 -3
3 1 17 9 33 19 39 424 446 465 468 19 10 34 21 34 24 0 3 -18 16 -40 30 -22
13 -131 117 -243 230 -185 187 -239 251 -225 265 2 3 31 10 62 16 66 12 607 7
644 -6 23 -7 23 -6 15 31 -10 50 -11 607 0 657 4 20 13 37 18 37 6 0 29 -13
52 -29z"/>
<path d="M1312 2510 l3 -205 32 -67 c38 -80 109 -156 181 -192 28 -14 56 -26
61 -26 18 0 40 55 52 127 14 88 -6 193 -53 269 -17 29 -87 108 -155 176 l-124
123 3 -205z"/>
<path d="M2003 2588 c-143 -145 -176 -195 -199 -296 -14 -62 -15 -86 -5 -144
12 -73 34 -128 52 -128 5 0 33 12 61 26 72 36 143 112 181 192 31 65 32 71 35
227 2 88 2 179 0 203 l-3 43 -122 -123z"/>
<path d="M840 2014 c142 -143 206 -187 307 -210 63 -14 86 -15 145 -5 73 12
128 34 128 52 0 5 -12 33 -26 61 -36 72 -112 143 -192 181 l-67 32 -205 3
-205 3 115 -117z"/>
<path d="M2295 2116 c-69 -22 -126 -56 -176 -106 -43 -43 -99 -133 -99 -159 0
-18 55 -40 128 -52 59 -10 82 -9 145 5 101 23 165 66 307 210 l115 116 -190
-1 c-124 0 -204 -5 -230 -13z"/>
<path d="M1622 1817 c-39 -40 -42 -47 -42 -98 0 -51 3 -57 43 -97 40 -39 47
-42 97 -42 50 0 57 3 97 42 40 40 43 46 43 97 0 51 -3 58 -42 98 -40 40 -45
43 -98 43 -53 0 -58 -3 -98 -43z"/>
<path d="M1150 1637 c-100 -24 -157 -62 -295 -199 l-130 -129 205 3 205 3 68
32 c82 39 162 117 197 192 24 52 24 53 5 67 -46 34 -174 49 -255 31z"/>
<path d="M2120 1636 c-30 -7 -67 -18 -83 -24 -27 -11 -27 -12 -13 -47 40 -95
115 -171 216 -219 l65 -31 205 -3 205 -3 -115 117 c-138 140 -206 187 -300
208 -80 19 -105 19 -180 2z"/>
<path d="M1542 1404 c-83 -41 -147 -106 -189 -192 l-38 -76 -3 -205 -3 -206
124 123 c68 68 138 147 155 176 46 75 67 181 53 267 -9 57 -35 139 -44 139 -2
0 -26 -12 -55 -26z"/>
<path d="M1826 1392 c-27 -52 -39 -152 -26 -222 20 -110 59 -171 202 -315
l129 -130 -3 205 -3 205 -32 67 c-38 80 -109 156 -181 192 -64 32 -68 32 -86
-2z"/>
</g>
</svg>
